<svg id="Layer_1" data-name="Layer 1" xmlns="http://www.w3.org/2000/svg" viewBox="0 0 1224.11 249.55"><defs><style>.cls-1{fill:#1d71b8;}.cls-2{fill:#fff;}.cls-3{font-size:171.94px;fill:#1d1d1b;font-family:Montserrat-Bold, Montserrat;font-weight:700;}.cls-4{letter-spacing:-0.01em;}</style></defs><title>Conduit Logo Final </title><path class="cls-1" d="M171.5,246.06h55.2v21.49H180.8l-35.25,37.54L182,349.19h78.87a107.84,107.84,0,0,0-65.13-165.31l-79.36,84.91H65.55a108.74,108.74,0,0,0-1.89,20.15c0,1.06,0,2.11.05,3.17h64.55Z" transform="translate(-63.66 -181.14)"/><path class="cls-1" d="M124.7,313.6H66.5a107.82,107.82,0,0,0,175.23,57.08H171.86Z" transform="translate(-63.66 -181.14)"/><path class="cls-1" d="M168.85,181.17A107.85,107.85,0,0,0,72,247.3h35Z" transform="translate(-63.66 -181.14)"/><path class="cls-2" d="M182,349.19l-36.44-44.1,35.25-37.54h45.9V246.06H171.5l-43.24,46.05H63.71A108.59,108.59,0,0,0,66.5,313.6h58.2l47.16,57.08h69.87a108.46,108.46,0,0,0,19.13-21.49Z" transform="translate(-63.66 -181.14)"/><path class="cls-2" d="M195.73,183.88a108.38,108.38,0,0,0-24.27-2.74l-2.61,0L107,247.3H72a107.18,107.18,0,0,0-6.45,21.49h50.82Z" transform="translate(-63.66 -181.14)"/><text class="cls-3" transform="translate(260.64 164.66)"><tspan class="cls-4">C</tspan><tspan x="116.92" y="0">ONDU</tspan><tspan class="cls-1" x="650.78" y="0">IT</tspan></text></svg>
